<svg xmlns="http://www.w3.org/2000/svg" aria-hidden="true" style="position:absolute;width:0;height:0;overflow:hidden">
  <defs>
    <symbol id="arrow-down" viewBox="0 0 59 32">
      <path d="M26.927 30.919a3.693 3.693 0 0 0 5.222 0L55.647 7.421a3.693 3.693 0 0 0-5.222-5.222L29.538 23.086 8.651 2.199a3.693 3.693 0 0 0-5.222 5.222l23.498 23.498zm-1.081-7.534v4.923h7.385v-4.923h-7.385z"/>
    </symbol>
    <symbol id="arrow-left-small" viewBox="0 0 84 32">
      <path d="M2.586 17.414a2 2 0 0 1 0-2.828L15.314 1.858a2 2 0 1 1 2.828 2.828L6.828 16l11.314 11.314a2 2 0 1 1-2.828 2.828L2.586 17.414zM84 18H4v-4h80v4z"/>
    </symbol>
    <symbol id="arrow-left" viewBox="0 0 168 32">
      <path d="M2.586 17.414a2 2 0 0 1 0-2.828L15.314 1.858a2 2 0 1 1 2.828 2.828L6.828 16l11.314 11.314a2 2 0 1 1-2.828 2.828L2.586 17.414zM168 18H4v-4h164v4z"/>
    </symbol>
    <symbol id="arrow-right-small" viewBox="0 0 84 32">
      <path d="M81.414 17.414a2 2 0 0 0 0-2.828L68.686 1.858a2 2 0 1 0-2.828 2.828L77.172 16 65.858 27.314a2 2 0 1 0 2.828 2.828l12.728-12.728zM0 18h80v-4H0v4z"/>
    </symbol>
    <symbol id="arrow-right" viewBox="0 0 168 32">
      <path d="M165.414 17.414a2 2 0 0 0 0-2.828L152.686 1.858a2 2 0 1 0-2.828 2.828L161.172 16l-11.314 11.314a2 2 0 1 0 2.828 2.828l12.728-12.728zM0 18h164v-4H0v4z"/>
    </symbol>
    <symbol id="arrow-up" viewBox="0 0 57 32">
      <path d="M25.93 1.041a3.554 3.554 0 0 1 5.028 0l22.628 22.627a3.556 3.556 0 0 1-5.028 5.028L28.445 8.583 8.332 28.696a3.555 3.555 0 1 1-5.028-5.028L25.931 1.041zm-1.041 6.07V3.555H32v3.556h-7.111z"/>
    </symbol>
    <symbol id="bike-delivery" viewBox="0 0 47 32">
      <path d="m10.944 4.855 1.802.034L8.758 17.9a13.778 13.778 0 0 1 .031.008c-3.499-.777-6.39.357-8.788 3.053l15.672 7.315c.099-.77.144-1.491.129-2.17.004.098.011.199.011.3h14.56c.004 3.09 2.539 5.591 5.662 5.591s5.658-2.505 5.662-5.591h4.766c.33-6.41-2.728-11.34-8.087-11.813h7.21c.573 0 1.04-.466 1.04-1.029v-1.13c0-.559-.463-1.014-1.025-1.014h-.091V3.677a.933.933 0 0 0-.934-.924H31.143a.933.933 0 0 0-.933.924v7.739h-6.641c-.702-.023-1.074.293-1.078.988v3.627c2.99 2.328 3.446 5.967.717 8.017h-4.425c-.114-3.488-2.129-5.614-5.476-7.964l1.996-6.087c.823-1.893.281-3.327-.922-4.33.376-1.194.645-2.215.562-3.049l2.091.428c.679.139.854.379 1.074-.27.038-.113.068-.222.087-.334.171-.89.065-.83-.664-.969L15.3 1.045h-.664l-.82-.454A4.131 4.131 0 0 0 12.298.08l-.717-.045c-.736 0-1.563-.203-1.988.469a.377.377 0 0 0-.015.113c-.3.101-.558.323-.751.627-.239.368-.383.871-.383 1.419s.148 1.051.383 1.419c.266.413.649.676 1.089.687.254.18.656.079 1.028.086zm28.19 4.296h4.728v.822h-4.728v-.822zM35.541 3.56h3.415v3.672l-1.791-1.374-1.624 1.374V3.56zm3.593 7.731h4.728v.822h-4.728v-.822zM3.002 22.365l5.047 2.366-1.639-.743a2.471 2.471 0 0 0-1.969 2.411c0 1.363 1.116 2.467 2.493 2.467s2.493-1.104 2.493-2.467c0-.421-.106-.815-.292-1.164l3.446 1.615c-.232 2.884-2.671 5.152-5.643 5.152-3.127 0-5.662-2.508-5.662-5.602a5.507 5.507 0 0 1 1.727-4.033zM9.589 1.577c.023.721.072 1.648.106 2.272a.9.9 0 0 1-.175-.207c-.159-.244-.254-.593-.254-.984s.099-.74.254-.984l.068-.098zm23.956 24.828h4.986c-.004 1.359-1.119 2.456-2.493 2.456s-2.489-1.096-2.493-2.456z"/>
    </symbol>
    <symbol id="calendar" viewBox="0 0 32 32">
      <path d="M26.574 4h-1.329V1.333h-2.657V4H9.301V1.333H6.644V4H5.315a2.67 2.67 0 0 0-2.657 2.667V28a2.67 2.67 0 0 0 2.657 2.667h21.259A2.67 2.67 0 0 0 29.231 28V6.667A2.67 2.67 0 0 0 26.574 4zm0 24H5.315V10.667h21.259V28z"/>
    </symbol>
    <symbol id="payment" viewBox="0 0 32 32">
      <path d="M7.864 2.363a.681.681 0 0 0-.481.192.668.668 0 0 0-.2.478v1.519L5.218 6.517V2.211a1.82 1.82 0 0 1 .53-1.287A1.846 1.846 0 0 1 7.032.397h23.557c.48.002.941.191 1.284.527.333.344.522.803.527 1.282v19.351c0 .483-.119 1.039-.527 1.284a1.82 1.82 0 0 1-1.282.527H16.263a5.81 5.81 0 0 0-.427-1.348l.633-.63h13.304a.667.667 0 0 0 .664-.667V3.033a.673.673 0 0 0-.67-.67h-3.639v6.97l-3.845-1.922-3.826 1.922v-6.97H7.861zM2.463 20.887l-.839 4.747a.382.382 0 0 1-.079.169 1.849 1.849 0 0 0-.425.865.48.48 0 0 0 .132.48l3.041 3.049c.202.198.46.329.738.377.321.099.663.109.989.029h.024l.572-.142c.878-.214 1.643-.403 2.355-1.055l.912-.952a.316.316 0 0 1 .037-.045c.013 0 .103-.103.224-.216.622-.612 1.398-1.366.926-2.025l-.367-.367c-.177.171-.364.338-.543.501s-.319.28-.461.422a.388.388 0 0 1-.546 0 .388.388 0 0 1 0-.546c.14-.142.316-.298.496-.459.62-.543 1.319-1.168.947-1.714l-.361-.361-.053-.066c-.208.214-.438.417-.662.614-.163.145-.316.28-.459.422a.388.388 0 0 1-.661-.273.377.377 0 0 1 .115-.273c.14-.142.316-.298.496-.456.62-.546 1.319-1.171.947-1.717l-.361-.361a.512.512 0 0 1-.063-.084l-1.055 1.055a.388.388 0 0 1-.546 0 .388.388 0 0 1 0-.546l1.991-1.991c.477-.477.585-.973.462-1.35-.045-.137 0-.14-.1-.237a.86.86 0 0 0-.166-.129c-.029 0-.05-.016-.079-.045a.65.65 0 0 0-.106-.042c-.33-.111-.643.084-1.076.451l-.018.016c-.047.04-.095.082-.142.129l-4.143 4.143a.388.388 0 0 1-.659-.245.382.382 0 0 1 .077-.259l-1.508-1.511zm2.495.284.134-.132 2.724-2.727a2.655 2.655 0 0 1-1.548-2.743 2.659 2.659 0 1 1 4.522 2.194l-.026.026a1.613 1.613 0 0 1 .285.322l3.381-3.368a1.343 1.343 0 0 1 0-1.886l-2.518-2.518a1.33 1.33 0 0 1-1.882 0l-7.007 7.007a1.343 1.343 0 0 1 0 1.886l1.936 1.938zm5.944-.896a2.798 2.798 0 0 1-.322.374l-.393.396a.439.439 0 0 1 .084.063l.377.38a.407.407 0 0 1 .055.069 1.296 1.296 0 0 1 .069 1.582c.053.019.1.05.14.09l.377.377a.465.465 0 0 1 .055.071 1.318 1.318 0 0 1 0 1.674.301.301 0 0 1 .047.04l.377.377c.02.023.038.046.055.071.878 1.2-.169 2.218-1.01 3.041l-.216.216-.936.984-.032.029c-.857.791-1.709.986-2.692 1.226l-.562.14h-.016c-.469.14-.963.175-1.448.103a2.132 2.132 0 0 1-1.147-.591L.497 27.704a1.209 1.209 0 0 1-.353-1.179c.119-.456.34-.879.646-1.237l.86-4.95v-.021c0-.061.021-.129.034-.206l-1.685-1.683L11.117 7.31l6.374 6.374-6.59 6.59z"/>
    </symbol>
    <symbol id="drawn-arrow" viewBox="0 0 27 32">
      <path stroke-linecap="round" stroke-width="1.021" d="M3.857.681c-3.976.431-3.392 9.438-2.612 11.911 1.801 5.713 6.774 10.258 11.891 9.546m0 0c1.93-.269 3.881-1.286 5.69-3.271 2.587-2.84 2.031-9.329-3.014-8.382-5.806 1.089-4.925 6.903-2.676 11.653zm0 0c1.091 2.304 2.503 4.359 3.63 5.503 1.374 1.394 4.546 2.619 7.119 2.442m0-.001c.82-.056 1.579-.255 2.2-.636m-2.2.636c.793-.358 1.679-.744 2.204-.929m-2.204.929c-.51.23-.981.45-1.292.597-3.23 1.531 1.901-.089 2.964-.686.308-.173.473-.357.528-.547m0 0c.095-.058.187-.121.275-.188.364-.276.179-.264-.271-.105m-.004.293a.56.56 0 0 0 .004-.293m0 0c-.237-.982-2.825-2.034-3.245-2.444"/>
    </symbol>
    <symbol id="facebook" viewBox="0 0 32 32">
      <path d="m22.952 17.773.829-5.46h-5.187V8.771c0-1.494.723-2.951 3.047-2.951h2.36V1.171S21.86.802 19.815.802c-4.274 0-7.065 2.616-7.065 7.349v4.162H8.001v5.46h4.749v13.2a18.663 18.663 0 0 0 5.844 0v-13.2h4.358z"/>
    </symbol>
    <symbol id="instagram" viewBox="0 0 32 32">
      <path d="M31.91 9.405c-.077-1.704-.352-2.87-.743-3.888-.41-1.05-.954-1.947-1.844-2.831s-1.78-1.441-2.829-1.845C25.476.444 24.311.175 22.608.098 20.899.021 20.355.002 16.015.002c-4.346 0-4.891.019-6.593.096S6.554.45 5.536.841c-1.056.41-1.952.954-2.836 1.845S1.26 4.467.856 5.517C.466 6.535.19 7.701.113 9.405c-.077 1.71-.096 2.255-.096 6.597 0 4.349.019 4.894.096 6.597s.352 2.869.743 3.888c.41 1.051.954 1.947 1.844 2.831a7.727 7.727 0 0 0 2.829 1.845c1.018.397 2.183.666 3.886.743 1.709.077 2.253.096 6.593.096 4.347 0 4.891-.019 6.593-.096s2.868-.352 3.886-.743c1.05-.41 1.946-.954 2.829-1.845s1.44-1.781 1.844-2.831c.397-1.018.666-2.184.743-3.888.077-1.71.096-2.255.096-6.597s-.013-4.893-.09-6.597zm-2.874 13.067c-.071 1.563-.333 2.415-.551 2.972-.288.743-.64 1.281-1.203 1.845s-1.095.903-1.844 1.204c-.563.218-1.415.48-2.97.551-1.684.077-2.189.096-6.465.096s-4.782-.019-6.465-.096c-1.562-.071-2.413-.333-2.97-.551-.743-.288-1.28-.641-1.844-1.204s-.903-1.095-1.203-1.845c-.218-.564-.48-1.416-.55-2.972-.077-1.685-.096-2.191-.096-6.469s.019-4.785.096-6.469c.07-1.563.333-2.415.55-2.972.288-.743.64-1.281 1.203-1.845s1.095-.903 1.844-1.204c.563-.218 1.415-.48 2.97-.551 1.684-.077 2.189-.096 6.465-.096s4.782.019 6.465.096c1.562.07 2.413.333 2.97.551.743.288 1.28.64 1.844 1.204s.903 1.095 1.203 1.845c.218.564.48 1.416.551 2.972.077 1.685.096 2.191.096 6.469s-.026 4.785-.096 6.469z"/>
      <path d="M16.003 7.778a8.218 8.218 0 0 0-8.219 8.224c0 4.548 3.681 8.224 8.219 8.224s8.219-3.689 8.219-8.224a8.214 8.214 0 0 0-8.219-8.224zm0 13.56c-2.945 0-5.332-2.389-5.332-5.335s2.388-5.335 5.332-5.335c2.945 0 5.332 2.389 5.332 5.335s-2.388 5.335-5.332 5.335zM24.543 9.38c1.061 0 1.92-.86 1.92-1.922a1.92 1.92 0 1 0-1.92 1.922z"/>
      <path d="M0 16.002c0 4.349.019 4.894.096 6.597s.352 2.869.743 3.888c.41 1.051.954 1.947 1.844 2.831a7.804 7.804 0 0 0 2.829 1.845c1.018.397 2.183.666 3.886.743 1.709.077 2.253.096 6.593.096 4.347 0 4.891-.019 6.593-.096s2.868-.352 3.886-.743c1.05-.41 1.946-.954 2.829-1.845a7.82 7.82 0 0 0 1.844-2.831c.397-1.018.666-2.184.743-3.888.077-1.71.096-2.255.096-6.597 0-4.349-.019-4.893-.096-6.597s-.352-2.87-.743-3.888c-.41-1.05-.954-1.947-1.844-2.831A7.649 7.649 0 0 0 26.476.841C25.458.444 24.293.175 22.59.098 20.881.021 20.337.002 15.997.002c-4.346 0-4.891.019-6.593.096S6.536.45 5.518.841c-1.05.41-1.946.954-2.829 1.845S1.249 4.467.845 5.517C.448 6.535.173 7.701.096 9.405S0 11.653 0 16.002zm2.887 0c0-4.272.019-4.785.096-6.469.07-1.563.333-2.415.55-2.972.288-.743.64-1.281 1.203-1.845s1.095-.903 1.844-1.204c.563-.218 1.415-.48 2.97-.551 1.684-.077 2.189-.096 6.465-.096s4.782.019 6.465.096c1.562.07 2.413.333 2.97.551.743.288 1.28.64 1.844 1.204s.903 1.095 1.203 1.845c.218.564.48 1.416.551 2.972.077 1.685.096 2.191.096 6.469s-.019 4.785-.096 6.469c-.071 1.563-.333 2.415-.551 2.972-.288.743-.64 1.281-1.203 1.845s-1.095.903-1.844 1.204c-.563.218-1.415.48-2.97.551-1.684.077-2.189.096-6.465.096s-4.782-.019-6.465-.096c-1.562-.071-2.413-.333-2.97-.551-.743-.288-1.28-.641-1.844-1.204s-.903-1.095-1.203-1.845c-.218-.564-.48-1.416-.55-2.972-.083-1.685-.096-2.197-.096-6.469z"/>
    </symbol>
    <symbol id="lower-line" viewBox="0 0 66 32">
      <path stroke-linecap="round" stroke-width="7.385" d="M8.664 27.077C-9.457 22.774 43.167 4.923 61.538 4.923"/>
    </symbol>
    <symbol id="menu" viewBox="0 0 36 32">
      <path d="M9.946 8.649h16.432a1.297 1.297 0 0 1 0 2.594H9.946a1.297 1.297 0 0 1 0-2.594zM9.946 14.703h16.432a1.297 1.297 0 0 1 0 2.594H9.946a1.297 1.297 0 0 1 0-2.594zM9.946 20.757h16.432a1.297 1.297 0 0 1 0 2.594H9.946a1.297 1.297 0 0 1 0-2.594z"/>
    </symbol>
    <symbol id="package-box" viewBox="0 0 32 32">
      <path d="M7 24.014a.997.997 0 0 0-1 1 .997.997 0 0 0 1 1h6a.997.997 0 0 0 1-1 .997.997 0 0 0-1-1H7z"/>
      <path d="M6 2.014a.998.998 0 0 0-.894.555l-3 6.035a.998.998 0 0 0-.1.422.745.745 0 0 1-.006.023v19.965a.997.997 0 0 0 1 1h26a.997.997 0 0 0 1-1V9.047a1.013 1.013 0 0 0-.105-.443l-3-6.035a1.002 1.002 0 0 0-.894-.554h-20zm.617 2h6.209l-.654 4.035H4.613l2.004-4.035zm8.233 0h4.303l.674 4.035h-5.629l.652-4.035zm6.33 0h4.201l2.006 4.035h-5.533l-.674-4.035zM4 10.049h8v9.965a.996.996 0 0 0 .618.923.995.995 0 0 0 1.09-.216l3.293-3.293 3.293 3.293a.994.994 0 0 0 1.09.216 1.004 1.004 0 0 0 .618-.923v-9.965h6v17.965h-24V10.049zm10 0h6V17.6l-2.293-2.293a1.003 1.003 0 0 0-1.414 0L14 17.6v-7.551z"/>
    </symbol>
    <symbol id="shopping-cart" viewBox="0 0 32 32">
      <path d="M9.333 24c-1.467 0-2.653 1.2-2.653 2.667s1.187 2.667 2.653 2.667c1.467 0 2.667-1.2 2.667-2.667S10.8 24 9.333 24zm-8-21.333v2.667H4l4.8 10.12L7 18.721a2.58 2.58 0 0 0-.333 1.28c0 1.467 1.2 2.667 2.667 2.667h16v-2.667H9.894a.33.33 0 0 1-.333-.333l.04-.16 1.2-2.173h9.933c1 0 1.88-.547 2.333-1.373l4.773-8.653a1.3 1.3 0 0 0 .16-.64c0-.733-.6-1.333-1.333-1.333H6.947L5.694 2.669h-4.36zM22.667 24c-1.467 0-2.653 1.2-2.653 2.667s1.187 2.667 2.653 2.667c1.467 0 2.667-1.2 2.667-2.667S24.134 24 22.667 24z"/>
    </symbol>
    <symbol id="telegram" viewBox="0 0 37 32">
      <path d="M14.559 32.002a1.143 1.143 0 0 1-1.143-1.142v-10.4c0-.327.14-.638.386-.856l4.818-4.27-7.96 4.628a1.15 1.15 0 0 1-1.085.035L.632 15.54a1.141 1.141 0 0 1 .096-2.087L35.013.082a1.132 1.132 0 0 1 1.15.19c.32.268.468.69.386 1.1l-5.962 29.714a1.14 1.14 0 0 1-.648.815 1.138 1.138 0 0 1-1.039-.047l-9.56-5.444-3.866 5.14a1.148 1.148 0 0 1-.914.454zm4.471-8.229c.194 0 .388.049.565.149l9.059 5.159 5.24-26.113L3.961 14.643l6.083 3.032L27.4 7.585a1.137 1.137 0 0 1 1.499.318 1.14 1.14 0 0 1-.168 1.525l-13.03 11.544v6.467l2.415-3.21a1.14 1.14 0 0 1 .913-.457z"/>
    </symbol>
    <symbol id="upper-line" viewBox="0 0 34 32">
      <path stroke-linecap="round" stroke-width="3.429" d="M2.286 29.714c.43-4.631 5.065-7.364 8.018-10.159C17.258 12.974 23.911 7.037 32 2.285"/>
    </symbol>
    <symbol id="viber" viewBox="0 0 32 32">
      <path stroke-linecap="round" stroke-linejoin="round" stroke-width="1.264" d="M16 .889C8.157.889.889 2.151.889 13.798c0 7.458 2.993 10.657 7.196 11.991v3.744c-.032.315.041.632.209.901a1.442 1.442 0 0 0 2.396.075l3.368-3.83h1.943c7.843 0 15.111-1.248 15.111-12.909S23.844.89 16.001.89z"/>
      <path stroke-linecap="round" stroke-linejoin="round" stroke-width="1.264" d="M16 10.929a2.15 2.15 0 0 1 2.158 2.151M16 5.192c2.099 0 4.113.831 5.597 2.311s2.318 3.486 2.318 5.578M16 8.06c1.336 0 2.617.529 3.562 1.47s1.475 2.218 1.475 3.55m-10.074 5.021c1.871 1.865 6.001 4.303 7.915 4.303.84.009 1.656-.272 2.312-.795s1.11-1.255 1.286-2.074v-1.434s-1.77-.861-2.878-1.434-2.878 1.434-2.878 1.434a9.392 9.392 0 0 1-3.598-2.151 9.347 9.347 0 0 1-2.159-3.586s2.015-1.764 1.439-2.869-1.439-2.869-1.439-2.869H9.524c-.821.175-1.556.628-2.081 1.281s-.806 1.468-.798 2.304c0 1.908 2.447 6.024 4.317 7.889z"/>
    </symbol>
    <symbol id="close" viewBox="0 0 32 32">
      <path d="M8.56 6.44c-0.267-0.249-0.627-0.403-1.023-0.403-0.828 0-1.5 0.672-1.5 1.5 0 0.396 0.153 0.755 0.403 1.023l-0.001-0.001 7.44 7.44-7.44 7.44c-0.294 0.275-0.477 0.665-0.477 1.097 0 0.828 0.672 1.5 1.5 1.5 0.433 0 0.823-0.183 1.097-0.477l0.001-0.001 7.44-7.44 7.44 7.44c0.275 0.294 0.665 0.477 1.097 0.477 0.828 0 1.5-0.672 1.5-1.5 0-0.433-0.183-0.823-0.477-1.097l-0.001-0.001-7.44-7.44 7.44-7.44c0.249-0.267 0.403-0.627 0.403-1.023 0-0.828-0.672-1.5-1.5-1.5-0.396 0-0.755 0.153-1.023 0.403l0.001-0.001-7.44 7.44-7.44-7.44z"></path>
    </symbol>
  </defs>
</svg>
